<?xml version="1.0" standalone="no"?>
<!DOCTYPE svg PUBLIC "-//W3C//DTD SVG 20010904//EN"
 "http://www.w3.org/TR/2001/REC-SVG-20010904/DTD/svg10.dtd">
<svg version="1.0" xmlns="http://www.w3.org/2000/svg"
 width="512.000000pt" height="512.000000pt" viewBox="0 0 512.000000 512.000000"
 preserveAspectRatio="xMidYMid meet">
<metadata>
Created by potrace 1.11, written by Peter Selinger 2001-2013
</metadata>
<g transform="translate(0.000000,512.000000) scale(0.100000,-0.100000)"
fill="#000000" stroke="none">
<path d="M2442 4626 c-272 -69 -498 -351 -659 -821 -53 -158 -81 -269 -117
-480 -25 -142 -31 -181 -41 -290 -3 -33 -8 -79 -10 -101 -5 -40 -2 -44 62
-108 83 -83 232 -210 239 -204 2 3 7 57 10 120 3 63 7 123 9 134 2 10 4 25 4
32 1 15 213 156 356 237 325 184 748 348 1025 399 14 2 36 7 50 10 110 25 303
35 422 23 301 -32 383 -181 258 -471 l-18 -44 116 -116 c83 -83 118 -112 125
-103 21 29 97 198 116 257 40 123 49 251 26 365 -11 55 -65 158 -111 211 -61
72 -163 137 -270 173 -87 29 -106 33 -229 48 -138 18 -398 -3 -593 -48 -26 -6
-55 -12 -64 -14 -92 -19 -398 -120 -513 -170 -16 -7 -59 -25 -95 -40 -94 -39
-361 -175 -457 -233 -64 -39 -83 -46 -83 -33 0 31 69 286 105 391 126 358 308
582 464 568 87 -8 183 -76 252 -177 19 -28 40 -51 47 -51 7 0 45 9 85 21 39
11 106 29 147 38 53 13 74 22 72 32 -9 38 -125 193 -197 264 -132 130 -243
183 -394 191 -53 2 -107 -2 -139 -10z"/>
<path d="M1288 3895 c-2 -2 -27 -6 -57 -10 -142 -18 -294 -89 -387 -180 -74
-74 -110 -136 -136 -240 -65 -254 69 -592 372 -940 232 -267 575 -543 932
-754 81 -47 147 -88 147 -91 1 -3 -47 -19 -107 -37 -369 -111 -650 -135 -852
-74 -76 23 -122 55 -158 108 -46 67 -36 192 26 334 l20 46 -117 117 -118 118
-41 -79 c-106 -205 -143 -392 -108 -546 66 -284 323 -445 720 -450 83 -1 266
10 289 18 6 2 29 6 49 9 157 23 615 154 653 188 5 4 15 8 23 8 7 0 32 9 55 19
23 11 69 31 102 45 161 71 149 60 173 150 27 98 51 214 59 278 l5 47 -135 -70
-136 -70 -98 48 c-173 84 -388 214 -578 349 -413 294 -715 624 -831 907 -76
189 -52 313 76 377 62 31 76 35 186 52 l72 11 17 71 c9 39 28 107 41 152 13
44 24 83 24 88 0 6 -175 7 -182 1z"/>
<path d="M3268 3205 c-3 -3 -14 -7 -24 -9 -11 -2 -46 -12 -79 -22 -33 -10 -62
-19 -65 -19 -3 -1 -12 -4 -20 -8 -8 -3 -42 -15 -74 -27 -33 -12 -64 -24 -69
-27 -5 -3 47 -41 115 -85 68 -44 126 -85 129 -90 9 -15 13 -126 13 -373 0
-286 -10 -432 -50 -680 -20 -127 -79 -361 -125 -492 -42 -124 -140 -318 -198
-395 -94 -124 -201 -189 -288 -175 -78 13 -171 84 -239 183 -34 49 -38 52 -63
42 -14 -5 -84 -25 -156 -43 -80 -21 -129 -38 -127 -45 5 -22 74 -124 129 -193
100 -125 234 -217 363 -251 75 -20 208 -14 283 13 227 80 427 320 571 685 88
222 170 564 191 796 4 36 8 70 10 77 9 27 19 242 20 405 0 121 3 178 11 178
15 0 258 -243 325 -326 121 -149 223 -329 249 -443 14 -61 9 -156 -11 -192
-42 -74 -138 -123 -277 -142 -77 -10 -83 -12 -88 -36 -2 -14 -18 -78 -36 -141
-42 -159 -43 -155 12 -154 55 1 186 13 203 19 7 3 25 7 40 9 126 21 278 103
357 193 189 215 169 532 -58 893 -166 264 -474 569 -840 828 -65 47 -116 65
-134 47z"/>
<path d="M2460 2863 c-85 -30 -152 -90 -191 -171 -33 -69 -33 -197 1 -267 31
-64 91 -124 155 -155 72 -34 198 -34 270 0 64 31 124 91 155 155 34 69 35 197
1 268 -28 61 -92 125 -154 155 -63 31 -174 38 -237 15z"/>
</g>
</svg>
