<?xml version="1.0" standalone="no"?>
<!DOCTYPE svg PUBLIC "-//W3C//DTD SVG 20010904//EN"
 "http://www.w3.org/TR/2001/REC-SVG-20010904/DTD/svg10.dtd">
<svg version="1.0" xmlns="http://www.w3.org/2000/svg"
 width="96.000000pt" height="96.000000pt" viewBox="0 0 96.000000 96.000000"
 preserveAspectRatio="xMidYMid meet">
<metadata>
Created by potrace 1.11, written by Peter Selinger 2001-2013
</metadata>
<g transform="translate(0.000000,96.000000) scale(0.100000,-0.100000)"
fill="#000000" stroke="none">
<path d="M427 854 c-51 -28 -97 -123 -117 -246 -10 -62 -9 -63 20 -93 l30 -30
0 27 c0 36 18 52 113 98 95 46 172 64 235 57 52 -6 65 -20 57 -63 -4 -22 0
-37 15 -54 l20 -23 15 36 c31 75 8 135 -61 157 -75 25 -225 -6 -341 -71 -28
-16 -33 -16 -33 -4 0 28 39 118 61 141 28 30 46 30 75 3 17 -16 29 -19 53 -14
l31 7 -21 26 c-46 59 -98 75 -152 46z"/>
<path d="M203 723 c-33 -6 -73 -59 -73 -96 1 -78 79 -180 202 -264 l70 -48
-43 -13 c-53 -16 -147 -11 -160 9 -5 8 -7 29 -4 48 5 26 2 38 -15 53 -20 19
-21 19 -35 -16 -29 -69 -13 -121 46 -152 78 -40 316 16 333 78 11 43 8 47 -23
35 -24 -9 -35 -6 -77 18 -185 107 -293 268 -195 290 21 4 33 15 40 36 9 28 9
29 -17 28 -15 -1 -37 -4 -49 -6z"/>
<path d="M570 588 l-25 -10 23 -11 c30 -14 35 -40 29 -139 -10 -141 -66 -278
-115 -278 -9 0 -26 10 -39 22 -19 17 -28 19 -54 12 l-31 -9 36 -37 c77 -79
152 -58 210 58 29 57 56 181 56 254 l0 51 40 -43 c76 -82 89 -150 31 -163 -21
-4 -33 -15 -40 -36 -9 -27 -8 -29 15 -29 37 0 89 25 108 51 45 65 -11 181
-137 281 -51 40 -66 43 -107 26z"/>
<path d="M440 520 c-11 -11 -20 -29 -20 -40 0 -11 9 -29 20 -40 11 -11 29 -20
40 -20 26 0 60 34 60 60 0 11 -9 29 -20 40 -11 11 -29 20 -40 20 -11 0 -29 -9
-40 -20z"/>
</g>
</svg>
